<svg viewBox="0 0 100 100" xmlns="http://www.w3.org/2000/svg">
  <defs>
    <radialGradient id="gold" cx="50%" cy="50%" r="50%" fx="50%" fy="50%">
      <stop offset="0%" style="stop-color:#ffda80;stop-opacity:1" />
      <stop offset="100%" style="stop-color:#d4af37;stop-opacity:1" />
    </radialGradient>
  </defs>
  <g>
    <!-- Center -->
    <circle cx="50" cy="50" r="12" fill="url(#gold)" />
    
    <!-- Petals -->
    <path d="M50,38 C60,25 70,15 50,5 C30,15 40,25 50,38" fill="#fff" stroke="#d4af37" stroke-width="1" />
    <path d="M50,38 C60,25 70,15 50,5 C30,15 40,25 50,38" fill="#fff" stroke="#d4af37" stroke-width="1" transform="rotate(40 50 50)" />
    <path d="M50,38 C60,25 70,15 50,5 C30,15 40,25 50,38" fill="#fff" stroke="#d4af37" stroke-width="1" transform="rotate(80 50 50)" />
    <path d="M50,38 C60,25 70,15 50,5 C30,15 40,25 50,38" fill="#fff" stroke="#d4af37" stroke-width="1" transform="rotate(120 50 50)" />
    <path d="M50,38 C60,25 70,15 50,5 C30,15 40,25 50,38" fill="#fff" stroke="#d4af37" stroke-width="1" transform="rotate(160 50 50)" />
    <path d="M50,38 C60,25 70,15 50,5 C30,15 40,25 50,38" fill="#fff" stroke="#d4af37" stroke-width="1" transform="rotate(200 50 50)" />
    <path d="M50,38 C60,25 70,15 50,5 C30,15 40,25 50,38" fill="#fff" stroke="#d4af37" stroke-width="1" transform="rotate(240 50 50)" />
    <path d="M50,38 C60,25 70,15 50,5 C30,15 40,25 50,38" fill="#fff" stroke="#d4af37" stroke-width="1" transform="rotate(280 50 50)" />
    <path d="M50,38 C60,25 70,15 50,5 C30,15 40,25 50,38" fill="#fff" stroke="#d4af37" stroke-width="1" transform="rotate(320 50 50)" />
  </g>
</svg>